<?xml version="1.0" standalone="no"?>
<!DOCTYPE svg PUBLIC "-//W3C//DTD SVG 20010904//EN"
 "http://www.w3.org/TR/2001/REC-SVG-20010904/DTD/svg10.dtd">
<svg version="1.0" xmlns="http://www.w3.org/2000/svg"
 width="512.000000pt" height="512.000000pt" viewBox="0 0 512.000000 512.000000"
 preserveAspectRatio="xMidYMid meet">
<metadata>
Created by potrace 1.14, written by Peter Selinger 2001-2017
</metadata>
<g transform="translate(0.000000,512.000000) scale(0.100000,-0.100000)"
fill="#000000" stroke="none">
<path d="M1876 4555 c-19 -19 -21 -66 -4 -83 22 -22 76 -15 94 12 13 22 14 29
2 53 -16 34 -66 44 -92 18z"/>
<path d="M2570 4452 c-120 -63 -71 -252 65 -252 69 0 135 66 135 135 0 44 -31
96 -71 117 -43 23 -85 23 -129 0z"/>
<path d="M1687 4372 c-10 -10 -17 -28 -17 -40 0 -28 34 -62 60 -62 27 0 60 35
60 63 0 50 -70 76 -103 39z"/>
<path d="M3350 4360 c-24 -24 -25 -43 -4 -64 18 -19 55 -21 72 -4 19 19 15 66
-7 78 -28 14 -38 13 -61 -10z"/>
<path d="M2951 4334 c-24 -30 -25 -42 -11 -78 21 -56 107 -60 135 -5 29 54 -5
109 -66 109 -29 0 -42 -6 -58 -26z"/>
<path d="M3616 4264 c-19 -18 -21 -55 -4 -72 19 -19 66 -15 78 7 14 28 13 38
-10 61 -24 24 -43 25 -64 4z"/>
<path d="M1140 4230 c-24 -24 -25 -48 -4 -78 30 -43 104 -17 104 36 0 28 -34
62 -60 62 -11 0 -29 -9 -40 -20z"/>
<path d="M2050 4232 c-57 -19 -141 -60 -174 -84 -16 -12 -25 -12 -70 4 -100
34 -202 15 -280 -53 -60 -53 -87 -107 -94 -188 l-5 -64 34 20 c120 74 292 67
412 -16 26 -18 47 -34 47 -36 0 -2 -21 6 -47 17 -33 14 -76 22 -138 26 -141 7
-246 -36 -342 -141 -53 -58 -81 -113 -98 -194 -8 -36 -16 -68 -19 -71 -13 -12
-5 147 9 194 8 28 33 76 54 107 36 51 39 60 30 87 -6 17 -9 51 -7 76 l3 46
-43 -6 c-23 -3 -55 -12 -70 -20 -41 -21 -90 -74 -102 -110 -10 -31 -10 -31
-72 -28 -80 5 -130 -10 -180 -56 -55 -49 -78 -102 -78 -179 l0 -62 -35 -7
c-49 -9 -111 -56 -135 -103 -24 -48 -27 -136 -5 -187 8 -20 29 -49 47 -66 l33
-31 -31 16 c-35 18 -81 69 -95 104 -8 23 -10 23 -46 8 -39 -16 -83 -60 -83
-82 0 -8 -12 -13 -28 -13 -22 0 -34 9 -53 38 -13 20 -40 45 -59 55 -70 36
-166 2 -191 -67 -11 -31 -15 -33 -48 -29 -55 7 -91 -25 -91 -81 0 -32 6 -48
23 -64 31 -29 89 -30 117 -2 l21 21 26 -21 c14 -11 39 -20 54 -20 23 0 29 -5
29 -21 0 -36 40 -96 80 -118 72 -40 187 -17 220 44 l12 23 38 -38 c21 -21 49
-40 61 -42 16 -2 26 -14 36 -45 33 -98 153 -167 254 -146 45 9 48 8 63 -18 9
-15 33 -35 55 -45 21 -11 54 -39 72 -64 21 -28 55 -56 89 -73 49 -25 63 -28
123 -24 53 3 78 11 115 34 l48 30 38 -33 c42 -36 103 -60 180 -71 39 -5 56
-13 79 -39 16 -19 58 -48 95 -66 57 -28 76 -33 142 -32 47 0 89 7 114 17 l38
17 -6 -108 c-15 -237 -61 -623 -83 -678 -3 -7 -17 -14 -32 -14 -48 0 -123 -28
-178 -66 -56 -39 -127 -132 -138 -183 -6 -28 -7 -29 -33 -15 -32 16 -119 18
-159 3 -61 -23 -122 -109 -123 -172 0 -25 -3 -27 -22 -21 -37 12 -124 7 -154
-9 -40 -21 -80 -65 -99 -109 -11 -28 -21 -38 -38 -38 -31 0 -84 -34 -92 -59
-5 -16 -15 -21 -38 -21 -42 0 -74 -23 -82 -58 l-6 -28 -287 -12 c-377 -17
-494 -31 -454 -56 35 -21 442 -42 1127 -57 588 -13 2444 -6 2880 10 305 12
574 29 623 39 39 8 42 24 7 34 -28 7 -272 24 -487 34 l-148 7 0 33 c0 23 -9
44 -29 66 -26 29 -35 33 -82 33 -46 0 -55 4 -89 38 -37 36 -58 43 -126 38 -16
-2 -23 7 -33 39 -15 51 -71 114 -125 143 -31 16 -58 21 -111 21 -85 0 -136
-24 -189 -85 -43 -51 -48 -38 -7 18 27 37 55 63 95 88 14 9 14 15 -9 63 -13
29 -36 68 -50 86 -33 43 -116 100 -175 121 -66 24 -192 22 -259 -4 -30 -11
-56 -20 -57 -18 -1 1 -14 62 -28 135 -37 190 -66 424 -72 587 -2 77 -6 161 -9
187 l-4 48 65 -4 c60 -4 67 -7 87 -37 32 -48 77 -70 141 -70 85 0 140 38 166
115 9 30 16 34 55 40 25 3 62 14 83 25 43 22 106 87 117 120 5 17 14 21 45 21
114 0 245 55 332 139 l58 57 37 -24 c32 -19 49 -23 105 -20 76 4 108 22 147
81 22 33 29 37 66 37 50 0 99 30 133 80 20 30 23 45 20 103 -2 57 0 70 15 78
14 8 17 6 17 -14 0 -31 39 -88 70 -104 74 -38 174 11 180 88 5 61 -1 82 -34
115 -29 29 -41 34 -80 34 l-46 0 0 48 c-1 105 -84 178 -192 169 -54 -5 -58 -4
-58 16 -1 64 -64 140 -127 153 -27 5 -30 3 -41 -35 -21 -69 -87 -130 -157
-145 l-30 -6 30 16 c77 42 114 106 115 197 0 117 -93 217 -203 217 -31 0 -36
4 -51 44 -21 54 -78 115 -131 141 -49 23 -138 31 -190 16 -34 -10 -41 -9 -50
5 -69 115 -207 149 -310 76 l-43 -31 -64 34 c-194 102 -429 52 -556 -119 -51
-69 -49 -46 5 53 l34 64 -28 23 c-54 45 -122 85 -180 106 -82 31 -265 36 -343
10z m1443 -329 c118 -56 214 -169 247 -292 13 -50 14 -172 2 -216 -7 -24 -10
-9 -13 65 -4 80 -10 105 -37 163 -44 95 -126 178 -220 225 -68 33 -84 37 -172
40 -105 5 -184 -11 -249 -50 -27 -15 -32 -16 -21 -3 19 23 96 67 155 88 38 13
73 17 145 14 82 -2 104 -7 163 -34z m-977 -892 c-21 -39 -21 -37 15 -50 46
-16 136 -13 194 7 45 15 51 20 55 52 l6 35 7 -43 c26 -150 161 -262 316 -262
75 0 120 14 180 55 l51 34 -26 -35 c-15 -19 -38 -43 -53 -54 -31 -23 -26 -29
57 -60 71 -27 188 -27 265 -1 105 36 181 103 233 206 24 46 25 47 19 15 -23
-112 -111 -220 -223 -273 -60 -29 -76 -32 -157 -32 -77 0 -99 4 -148 27 -32
15 -72 38 -89 52 -26 20 -35 22 -60 14 -42 -15 -166 -5 -208 16 -19 10 -56 38
-81 63 l-46 45 -6 -34 c-23 -127 -31 -253 -31 -488 0 -333 24 -570 94 -910 41
-198 48 -220 68 -220 52 -1 156 -79 168 -126 3 -13 16 -25 30 -28 34 -9 95
-65 110 -103 15 -35 18 -101 6 -120 -4 -6 -8 8 -9 32 -2 66 -39 122 -100 154
-22 11 -23 10 -23 -31 0 -24 -5 -50 -10 -58 -7 -11 -10 0 -10 38 0 119 -95
212 -218 212 -65 0 -142 -39 -177 -89 -25 -38 -28 -39 -53 -26 -15 8 -34 16
-44 19 -13 4 -15 13 -11 44 14 104 -72 202 -177 202 -66 0 -170 -70 -170 -115
0 -10 -18 -13 -67 -13 -89 1 -160 -29 -214 -90 -68 -78 -88 -204 -44 -293 15
-32 15 -33 -1 -14 -51 62 -68 168 -40 248 30 82 109 149 201 169 27 6 46 16
49 26 16 55 77 380 95 507 30 219 41 366 41 580 0 168 -14 402 -25 413 -2 2
-24 -10 -49 -27 -114 -79 -245 -73 -363 16 -47 34 -41 47 10 21 58 -30 185
-37 255 -14 56 19 130 71 155 109 l17 26 -53 11 c-28 6 -68 20 -87 31 -23 13
-27 17 -12 13 13 -3 57 -6 98 -6 58 1 87 6 129 26 69 31 117 67 147 111 27 40
36 30 14 -14z m-1257 -139 c30 -59 85 -110 150 -140 68 -32 182 -36 244 -9 49
21 38 4 -19 -29 -55 -32 -160 -44 -220 -24 -60 20 -123 68 -154 117 -34 54
-55 140 -44 186 l8 32 7 -46 c4 -25 16 -64 28 -87z m378 -1888 c45 -22 80 -69
88 -119 l6 -40 -19 41 c-44 91 -150 127 -231 77 -18 -11 -22 -12 -19 -2 6 18
86 59 116 59 13 0 40 -7 59 -16z"/>
<path d="M2764 2874 c-25 -151 -31 -197 -40 -304 -14 -164 -8 -521 11 -685 17
-149 26 -210 50 -350 29 -167 76 -365 87 -365 6 0 7 12 3 28 -13 50 -63 288
-69 328 -4 21 -8 46 -11 54 -2 8 -6 38 -10 65 -3 28 -8 57 -10 65 -2 8 -6 42
-10 75 -3 33 -8 67 -10 75 -18 74 -27 576 -12 725 10 107 26 216 41 291 2 11
1 26 -4 33 -4 8 -11 -6 -16 -35z"/>
<path d="M2304 2745 c18 -158 21 -224 21 -455 0 -140 -4 -291 -8 -335 -4 -44
-10 -96 -12 -115 -2 -19 -6 -55 -9 -80 -4 -25 -9 -63 -12 -85 -3 -22 -9 -58
-14 -80 -5 -22 -12 -60 -15 -85 -4 -24 -8 -47 -10 -50 -2 -3 -6 -26 -10 -50
-3 -25 -8 -53 -11 -62 -3 -9 -7 -25 -9 -35 -2 -10 -8 -38 -14 -63 -13 -56 -13
-60 -2 -60 5 0 12 17 16 38 5 20 9 42 11 47 8 35 37 175 41 200 2 17 10 64 18
105 17 91 23 130 30 195 3 28 8 64 10 80 14 104 19 219 20 440 0 228 -3 287
-21 425 -9 65 -27 88 -20 25z"/>
<path d="M2552 2068 c-17 -17 -15 -45 4 -52 19 -7 44 10 44 30 0 20 -34 36
-48 22z"/>
<path d="M2404 1705 c-9 -23 3 -45 25 -45 25 0 32 11 24 38 -6 25 -41 30 -49
7z"/>
<path d="M2543 1564 c-9 -25 24 -46 48 -31 10 6 19 20 19 29 0 24 -58 25 -67
2z"/>
<path d="M2666 1504 c-9 -22 1 -34 30 -34 28 0 34 34 8 44 -24 9 -31 7 -38
-10z"/>
<path d="M2362 1448 c-18 -18 -15 -42 7 -62 18 -17 21 -17 45 -1 18 12 26 26
26 46 0 26 -3 29 -33 29 -18 0 -38 -5 -45 -12z"/>
<path d="M2561 1352 c-12 -22 3 -42 32 -42 14 0 18 6 15 27 -4 33 -32 42 -47
15z"/>
<path d="M2692 1358 c-7 -7 -12 -18 -12 -24 0 -18 39 -28 55 -14 17 14 20 40
6 40 -5 0 -15 2 -23 5 -7 3 -19 0 -26 -7z"/>
<path d="M2284 1335 c-4 -9 -2 -21 4 -27 16 -16 47 -5 47 17 0 26 -42 34 -51
10z"/>
<path d="M2755 1240 c-13 -20 6 -50 31 -50 22 0 25 4 22 28 -2 19 -9 28 -25
30 -11 2 -24 -2 -28 -8z"/>
<path d="M2651 1196 c-19 -22 12 -76 43 -76 26 0 42 36 31 71 -8 23 -57 26
-74 5z"/>
<path d="M575 3781 c-65 -28 -82 -118 -32 -168 22 -22 37 -28 72 -28 126 0
139 184 14 200 -18 3 -43 1 -54 -4z"/>
<path d="M4670 3502 c-25 -25 -30 -38 -30 -77 0 -72 37 -101 120 -96 39 3 80
54 80 101 0 56 -32 90 -92 97 -42 5 -50 3 -78 -25z"/>
<path d="M325 3455 c-52 -51 -18 -135 54 -135 42 0 81 38 81 80 0 41 -39 80
-80 80 -19 0 -40 -9 -55 -25z"/>
<path d="M5010 3227 c-53 -27 -47 -119 9 -134 61 -16 101 11 101 68 0 29 -6
42 -26 58 -31 24 -49 26 -84 8z"/>
<path d="M4002 2624 c-24 -17 -30 -62 -10 -82 7 -7 24 -12 38 -12 33 0 50 17
50 50 0 48 -40 71 -78 44z"/>
<path d="M1492 2374 c-45 -31 -21 -94 36 -94 42 0 62 71 26 97 -23 17 -35 16
-62 -3z"/>
<path d="M836 2235 c-9 -24 1 -35 30 -35 21 0 25 4 22 23 -4 27 -42 36 -52 12z"/>
<path d="M4064 2125 c-14 -35 37 -50 56 -16 15 29 13 31 -20 31 -18 0 -33 -6
-36 -15z"/>
<path d="M3553 1896 c-84 -110 -165 -216 -181 -235 l-28 -34 -48 139 c-26 76
-53 153 -60 169 l-13 30 -22 -75 c-13 -41 -36 -118 -52 -171 -16 -53 -29 -103
-29 -111 0 -13 26 -27 51 -28 4 0 17 36 30 80 12 44 25 80 28 80 4 0 26 -56
50 -125 24 -69 45 -125 47 -125 2 0 51 63 109 140 58 77 107 140 109 140 2 0
-4 -28 -15 -62 -61 -198 -80 -270 -76 -275 3 -3 80 34 171 81 140 73 164 83
157 64 -5 -13 -35 -85 -66 -162 -31 -76 -55 -140 -52 -142 2 -2 67 7 145 19
78 13 142 22 142 21 0 -2 -45 -42 -100 -90 -55 -48 -100 -90 -100 -94 0 -4 32
-12 70 -19 39 -7 70 -17 70 -22 0 -5 -8 -9 -17 -9 -32 0 -46 -16 -39 -44 3
-14 11 -26 18 -26 21 0 308 83 308 89 0 4 -53 17 -117 30 -65 13 -126 27 -137
31 -15 5 6 28 118 125 75 66 136 123 136 127 0 4 -12 5 -27 2 -63 -12 -368
-62 -370 -60 -1 0 32 84 73 185 41 101 73 185 70 188 -3 3 -84 -36 -182 -86
-107 -56 -174 -85 -170 -76 21 57 156 512 154 521 -2 6 -71 -79 -155 -190z"/>
<path d="M1777 2050 c-3 -8 -15 -96 -27 -195 -11 -99 -23 -190 -26 -203 -4
-21 -17 -12 -127 93 -67 63 -123 109 -125 103 -1 -7 8 -86 21 -175 13 -90 22
-163 21 -163 -2 0 -111 78 -241 174 -131 96 -239 171 -241 167 -1 -4 56 -111
129 -237 72 -126 135 -236 139 -245 8 -13 -14 -12 -158 12 -92 15 -179 30
-194 33 -16 3 -28 2 -28 -2 0 -4 61 -61 136 -126 74 -65 133 -120 131 -122 -2
-2 -59 -16 -128 -30 -68 -14 -128 -30 -132 -33 -4 -4 63 -27 149 -51 130 -36
157 -41 165 -29 17 27 9 47 -23 59 l-33 13 73 15 c39 9 72 19 72 22 0 4 -45
46 -101 94 -55 49 -99 90 -97 91 2 2 68 -8 147 -21 79 -14 145 -23 148 -21 2
2 -38 76 -88 163 -119 208 -116 202 -98 188 100 -78 351 -255 356 -250 3 3 -4
70 -16 148 -12 79 -21 147 -21 151 0 5 46 -34 102 -87 56 -52 104 -94 105 -92
2 1 10 56 18 122 9 65 17 123 18 128 2 5 16 -37 31 -93 29 -103 35 -111 77
-93 14 6 8 37 -52 247 -80 279 -75 264 -82 245z"/>
<path d="M2997 1953 c-11 -10 -8 -51 3 -58 6 -3 19 -4 29 0 14 4 17 12 13 28
-7 30 -30 45 -45 30z"/>
<path d="M3702 1793 c-13 -26 -4 -43 24 -43 22 0 25 4 22 27 -4 33 -32 43 -46
16z"/>
<path d="M1317 1781 c-6 -25 0 -31 30 -31 20 0 24 5 21 23 -4 29 -43 36 -51 8z"/>
<path d="M2023 1544 c-3 -8 2 -23 11 -32 15 -15 17 -15 32 0 21 21 11 48 -16
48 -11 0 -23 -7 -27 -16z"/>
<path d="M3004 1545 c-10 -25 4 -45 31 -45 27 0 31 10 15 41 -13 23 -38 25
-46 4z"/>
<path d="M3173 1484 c-3 -8 -1 -20 5 -26 16 -16 44 -5 53 20 7 20 5 22 -22 22
-18 0 -32 -6 -36 -16z"/>
<path d="M1814 1436 c-9 -22 4 -36 32 -36 21 0 25 4 22 23 -4 26 -45 37 -54
13z"/>
<path d="M1513 1313 c-17 -6 -16 -58 1 -72 21 -17 72 -2 85 25 9 21 7 25 -19
39 -30 15 -45 17 -67 8z"/>
<path d="M3573 1224 c-3 -8 1 -22 9 -31 13 -12 19 -13 37 -1 11 7 21 21 21 30
0 24 -58 25 -67 2z"/>
<path d="M664 1155 c-9 -23 3 -45 25 -45 23 0 35 28 20 46 -15 18 -38 18 -45
-1z"/>
<path d="M4221 1040 c-17 -10 -10 -54 9 -57 25 -5 43 13 36 35 -8 24 -28 33
-45 22z"/>
<path d="M4410 990 c-8 -5 -10 -17 -6 -34 5 -22 11 -26 29 -20 29 9 30 9 23
32 -8 24 -28 33 -46 22z"/>
<path d="M1040 970 c-11 -7 -12 -14 -4 -27 14 -23 27 -26 49 -10 37 28 -5 63
-45 37z"/>
<path d="M898 853 c-42 -11 -27 -83 17 -83 25 0 65 31 65 50 0 8 -54 42 -62
39 -2 -1 -11 -3 -20 -6z"/>
<path d="M566 774 c-8 -21 11 -44 36 -44 15 0 19 6 16 28 -4 32 -41 44 -52 16z"/>
<path d="M4465 770 c-13 -20 6 -50 31 -50 22 0 25 4 22 28 -2 19 -9 28 -25 30
-11 2 -24 -2 -28 -8z"/>
</g>
</svg>
