<?xml version="1.0" encoding="iso-8859-1"?>
<!-- Uploaded to: SVG Repo, www.svgrepo.com, Generator: SVG Repo Mixer Tools -->
<svg fill="#fff" height="800px" width="800px" version="1.1" id="Layer_1" xmlns="http://www.w3.org/2000/svg" xmlns:xlink="http://www.w3.org/1999/xlink" 
	 viewBox="0 0 512 512" xml:space="preserve">
<g>
	<g>
		<path d="M431.721,395.23l-47.015-47.016V33.67c0-13.851-11.268-25.119-25.119-25.119H203.052C200.223,3.458,194.792,0,188.563,0
			H162.91c-6.228,0-11.659,3.458-14.489,8.551h-45.369c-13.851,0-25.119,11.268-25.119,25.119v342.046
			c0,13.851,11.268,25.119,25.119,25.119h214.313v41.516c0,2.945,1.615,5.653,4.206,7.054c2.592,1.4,5.742,1.267,8.205-0.348
			l23.08-15.127l30.288,73.122c0.813,1.965,2.374,3.525,4.339,4.339c0.982,0.406,2.026,0.61,3.068,0.61
			c1.042,0,2.085-0.203,3.068-0.61l32.826-13.597c4.091-1.694,6.033-6.384,4.339-10.474l-30.267-73.072l27.126-5.491
			c2.895-0.586,5.232-2.716,6.084-5.543C434.578,400.385,433.809,397.317,431.721,395.23z M162.375,16.568
			c0-0.295,0.239-0.534,0.534-0.534h25.653c0.293,0,0.531,0.237,0.533,0.53v0.004c0,0.007,0.001,0.014,0.001,0.02v60.26
			l-8.353-6.683c-1.464-1.172-3.236-1.757-5.008-1.757s-3.543,0.586-5.008,1.757l-8.353,6.683V16.568z M112.137,384.802h-9.086
			c-5.01,0-9.086-4.076-9.086-9.086V33.67c0-5.01,4.076-9.086,9.086-9.086h9.086V384.802z M322.315,292.82
			c-2.996,1.241-4.949,4.164-4.949,7.406v84.575H128.171V24.585h18.171v68.944c0,3.082,1.766,5.891,4.544,7.226
			s6.073,0.961,8.481-0.965l16.37-13.096l16.37,13.096c1.449,1.159,3.222,1.756,5.009,1.756c1.18,0,2.368-0.261,3.472-0.791
			c2.778-1.335,4.544-4.144,4.544-7.226V24.585h154.455c5.01,0,9.086,4.076,9.086,9.086v298.51l-37.621-37.622
			C328.758,292.265,325.31,291.58,322.315,292.82z M387.793,400.463c-2.347,0.476-4.36,1.976-5.486,4.091
			c-1.126,2.115-1.246,4.622-0.33,6.836l30.924,74.659l-18.013,7.461l-30.925-74.659c-0.914-2.206-2.763-3.89-5.045-4.593
			c-0.774-0.238-1.569-0.356-2.36-0.356c-1.545,0-3.074,0.446-4.395,1.312l-18.766,12.299v-107.93l76.423,76.424L387.793,400.463z"
			/>
	</g>
</g>
<g>
	<g>
		<path d="M325.315,204.694c2.864-2.919,5.544-5.843,7.989-8.753c20.587-24.519,19.03-39.849,14.097-48.392
			c-4.932-8.543-17.428-17.555-48.957-11.988c-3.744,0.662-7.616,1.521-11.576,2.542c-1.096-3.94-2.287-7.723-3.586-11.295
			c-10.941-30.088-24.996-36.404-34.86-36.404c-9.865,0-23.919,6.316-34.861,36.404c-1.299,3.572-2.49,7.355-3.586,11.295
			c-3.96-1.021-7.832-1.88-11.575-2.542c-31.526-5.569-44.026,3.446-48.958,11.988c-4.932,8.543-6.49,23.873,14.097,48.392
			c2.445,2.912,5.124,5.834,7.989,8.753c-2.864,2.919-5.544,5.843-7.989,8.753c-20.587,24.519-19.028,39.849-14.097,48.392
			c3.874,6.708,12.41,13.708,31.166,13.708c5.129,0,11.022-0.524,17.792-1.719c3.743-0.662,7.616-1.521,11.575-2.542
			c1.096,3.94,2.287,7.722,3.586,11.295c10.941,30.088,24.996,36.404,34.861,36.404c9.864,0,23.919-6.316,34.86-36.404
			c1.299-3.572,2.49-7.355,3.586-11.295c3.96,1.021,7.832,1.88,11.576,2.542c6.771,1.196,12.662,1.719,17.792,1.719
			c18.753-0.001,27.293-7,31.166-13.708c4.932-8.543,6.489-23.873-14.097-48.392C330.86,210.536,328.18,207.613,325.315,204.694z
			 M163.327,253.823c-2.512-4.35-0.549-14.534,12.491-30.066c2.26-2.691,4.746-5.398,7.412-8.105
			c6.033,5.216,12.632,10.352,19.688,15.315c0.767,8.57,1.912,16.834,3.408,24.649C183.116,261.607,166.998,260.182,163.327,253.823
			z M201.808,210.164c-2.339-1.84-4.577-3.672-6.712-5.491c2.161-1.836,4.398-3.662,6.712-5.475
			c-0.033,1.825-0.049,3.657-0.049,5.495C201.759,206.523,201.776,208.348,201.808,210.164z M202.917,178.421
			c-7.039,4.95-13.622,10.073-19.643,15.277c-16.794-17.103-23.619-31.775-19.948-38.134c1.78-3.083,7.217-5.684,17.341-5.684
			c4.164,0,9.122,0.44,14.942,1.469c3.461,0.611,7.048,1.411,10.726,2.365C204.834,161.546,203.686,169.829,202.917,178.421z
			 M276.466,167.06c-1.556-0.936-3.128-1.862-4.713-2.777c-1.585-0.915-3.174-1.813-4.763-2.694
			c2.751-1.101,5.448-2.121,8.082-3.056C275.579,161.281,276.044,164.125,276.466,167.06z M248.421,106.435
			c7.342,0,16.635,13.246,23.05,36.342c-7.515,2.612-15.245,5.752-23.051,9.373c-7.806-3.62-15.534-6.761-23.051-9.373
			C231.785,119.68,241.079,106.435,248.421,106.435z M221.777,158.502c2.671,0.953,5.371,1.979,8.097,3.075
			c-1.597,0.884-3.192,1.785-4.784,2.705c-1.584,0.915-3.155,1.841-4.713,2.777C220.8,164.115,221.267,161.26,221.777,158.502z
			 M220.378,242.327c1.556,0.936,3.128,1.862,4.713,2.777c1.585,0.915,3.172,1.813,4.762,2.694
			c-2.751,1.101-5.447,2.121-8.081,3.056C221.264,248.105,220.799,245.261,220.378,242.327z M248.421,302.951
			c-7.343,0-16.636-13.246-23.051-36.342c7.516-2.612,15.245-5.753,23.051-9.373c7.806,3.62,15.534,6.761,23.051,9.373
			C265.058,289.706,255.765,302.951,248.421,302.951z M275.065,250.883c-2.671-0.953-5.371-1.979-8.097-3.074
			c1.596-0.884,3.192-1.785,4.783-2.705c1.586-0.915,3.157-1.841,4.714-2.777C276.042,245.272,275.574,248.127,275.065,250.883z
			 M278.519,222.067c-4.749,3.143-9.681,6.206-14.784,9.152c-5.213,3.009-10.321,5.739-15.311,8.226
			c-5.095-2.541-10.214-5.28-15.317-8.226c-5.213-3.01-10.132-6.07-14.783-9.149c-0.341-5.567-0.532-11.357-0.532-17.377
			c0-6.019,0.19-11.808,0.531-17.374c4.748-3.141,9.68-6.206,14.783-9.152c5.213-3.009,10.321-5.739,15.312-8.226
			c5.095,2.541,10.214,5.28,15.317,8.226c5.213,3.01,10.132,6.07,14.783,9.149c0.341,5.567,0.532,11.357,0.532,17.377
			C279.05,210.712,278.86,216.501,278.519,222.067z M333.516,155.564c2.512,4.35,0.549,14.535-12.491,30.066
			c-2.26,2.691-4.746,5.398-7.412,8.105c-6.033-5.216-12.632-10.352-19.688-15.315c-0.767-8.57-1.912-16.834-3.408-24.649
			C313.726,147.779,329.843,149.205,333.516,155.564z M295.035,199.223c2.339,1.84,4.577,3.672,6.712,5.491
			c-2.161,1.836-4.398,3.662-6.712,5.475c0.033-1.825,0.049-3.657,0.049-5.496C295.083,202.863,295.067,201.039,295.035,199.223z
			 M333.516,253.823c-2.512,4.351-12.31,7.744-32.284,4.216c-3.461-0.611-7.048-1.411-10.726-2.367
			c1.502-7.832,2.65-16.115,3.418-24.708c7.039-4.95,13.622-10.073,19.643-15.277C330.363,232.792,337.188,247.464,333.516,253.823z
			"/>
	</g>
</g>
<g>
	<g>
		<path d="M248.421,192.401c-6.778,0-12.292,5.514-12.292,12.292s5.514,12.292,12.292,12.292c6.778,0,12.292-5.514,12.292-12.292
			S255.199,192.401,248.421,192.401z"/>
	</g>
</g>
</svg>